<?xml version="1.0" encoding="utf-8"?>
<!-- Generator: Adobe Illustrator 26.0.2, SVG Export Plug-In . SVG Version: 6.00 Build 0)  -->
<svg version="1.1" id="Calque_1" xmlns="http://www.w3.org/2000/svg" xmlns:xlink="http://www.w3.org/1999/xlink" x="0px" y="0px"
	 viewBox="0 0 349.4 348.7" style="enable-background:new 0 0 349.4 348.7;" xml:space="preserve">
<style type="text/css">
	.st0{fill:#EC670F;}
</style>
<g>
	<path class="st0" d="M200.7,138.4c3.2,1.1,6.4,2.2,9.7,3.1c5.2,1.4,10.8,0.7,15.6-1.9c3.7-1.9,6.5-4.8,9.4-7.7
		c12.4-12.5,24.7-24.9,37.1-37.4c1.1-1.2,2.3-2.4,3.3-3.6c0.3-0.4,0.6-0.8,0.7-1.2c1.3-2.9,0.4-5.1-2.5-6.3
		c-3.2-1.2-6.3-2.2-9.5-3.3c-2.2-0.7-4.4-1.5-6.6-2.2c-1.7-0.6-3.6-0.3-5,0.8c-2,1.5-3.9,3.2-5.8,5c-9.1,9.2-18.2,18.6-27.3,27.8
		c-4.2,4.2-11,4.2-15.1,0c-1.7-1.7-2.7-3.8-3-6.2c-1.1-10.3-2.2-20.6-3.4-30.8c-0.5-4-1-7.9-1.6-11.9c-0.1-0.8-0.3-1.5-0.4-2.2
		c-0.5-2.7-2.4-4.8-5.1-5.5c-4.9-1.6-9.7-3.2-14.6-4.9c-0.4-0.1-0.8-0.2-1.1-0.2c-3.2-0.4-5,1.1-5.2,4.2c0,1.9,0.1,3.8,0.4,5.8
		c2.2,18.3,4.5,36.6,6.7,55c0.5,4.8,2.2,9.4,5,13.4c2.7,3.5,6.3,6.2,10.5,7.6C195.6,136.7,198.1,137.5,200.7,138.4z"/>
	<path class="st0" d="M211,148.7c-1.1-3.2-2.2-6.4-3.1-9.7c-1.4-5.2-0.7-10.8,1.9-15.6c1.9-3.7,4.8-6.5,7.7-9.4
		c12.5-12.4,24.9-24.7,37.4-37.1c1.2-1.1,2.4-2.3,3.6-3.3c0.4-0.3,0.8-0.6,1.2-0.7c2.9-1.3,5.1-0.4,6.3,2.5c1.2,3.2,2.2,6.3,3.3,9.5
		c0.7,2.2,1.5,4.4,2.2,6.6c0.6,1.7,0.3,3.6-0.8,5c-1.5,2-3.2,3.9-5,5.8c-9.2,9.1-18.6,18.2-27.8,27.3c-4.2,4.2-4.2,11,0,15.1
		c1.7,1.7,3.8,2.7,6.2,3c10.3,1.1,20.6,2.2,30.8,3.4c4,0.5,7.9,1,11.9,1.6c0.8,0.1,1.5,0.3,2.2,0.4c2.7,0.5,4.8,2.4,5.5,5.1
		c1.6,4.9,3.2,9.7,4.9,14.6c0.1,0.4,0.2,0.8,0.2,1.1c0.4,3.2-1.1,5-4.2,5.2c-1.9,0-3.8-0.1-5.8-0.4c-18.3-2.2-36.6-4.5-55-6.7
		c-4.8-0.5-9.4-2.2-13.4-5c-3.5-2.7-6.2-6.3-7.6-10.5C212.7,153.8,211.9,151.2,211,148.7z"/>
	<path class="st0" d="M250.4,88.6c3.2,1.1,6.4,2.2,9.7,3.1c5.2,1.4,10.8,0.7,15.6-1.9c3.7-1.9,6.5-4.8,9.4-7.7
		c12.4-12.5,24.7-24.9,37.1-37.4c1.1-1.2,2.3-2.4,3.3-3.6c0.3-0.4,0.6-0.8,0.7-1.2c1.3-2.9,0.4-5.1-2.5-6.3
		c-3.2-1.2-6.3-2.2-9.5-3.3c-2.2-0.7-4.4-1.5-6.6-2.2c-1.7-0.6-3.6-0.3-5,0.8c-2,1.5-3.9,3.2-5.8,5c-9.1,9.2-18.2,18.6-27.3,27.8
		c-4.2,4.2-11,4.2-15.1,0c-1.7-1.7-2.7-3.8-3-6.2c-1.1-10.3-2.2-20.6-3.4-30.8c-0.5-4-1-7.9-1.6-11.9c-0.1-0.8-0.3-1.5-0.4-2.2
		c-0.5-2.7-2.4-4.8-5.1-5.5c-4.9-1.6-9.7-3.2-14.6-4.9c-0.4-0.1-0.8-0.2-1.1-0.2c-3.2-0.4-5,1.1-5.2,4.2c0,1.9,0.1,3.8,0.4,5.8
		c2.2,18.3,4.5,36.6,6.7,55c0.5,4.8,2.2,9.4,5,13.4c2.7,3.5,6.3,6.2,10.5,7.6C245.3,87,247.9,87.7,250.4,88.6z"/>
	<path class="st0" d="M260.7,98.9c-1.1-3.2-2.2-6.4-3.1-9.7c-1.4-5.2-0.7-10.8,1.9-15.6c1.9-3.7,4.8-6.5,7.7-9.4
		c12.5-12.4,24.9-24.7,37.4-37.1c1.2-1.1,2.4-2.3,3.6-3.3c0.4-0.3,0.8-0.6,1.2-0.7c2.9-1.3,5.1-0.4,6.3,2.5c1.2,3.2,2.2,6.3,3.3,9.5
		c0.7,2.2,1.5,4.4,2.2,6.6c0.6,1.7,0.3,3.6-0.8,5c-1.5,2-3.2,3.9-5,5.8c-9.2,9.1-18.6,18.2-27.8,27.3c-4.2,4.2-4.2,11,0,15.1
		c1.7,1.7,3.8,2.7,6.2,3c10.3,1.1,20.6,2.2,30.8,3.4c4,0.5,7.9,1,11.9,1.6c0.8,0.1,1.5,0.3,2.2,0.4c2.7,0.5,4.8,2.4,5.5,5.1
		c1.6,4.9,3.2,9.7,4.9,14.6c0.1,0.4,0.2,0.8,0.2,1.1c0.4,3.2-1.1,5-4.2,5.2c-1.9,0-3.8-0.1-5.8-0.4c-18.3-2.2-36.6-4.5-55-6.7
		c-4.8-0.5-9.4-2.2-13.4-5c-3.5-2.7-6.2-6.3-7.6-10.5C262.4,104,261.6,101.5,260.7,98.9z"/>
	<path class="st0" d="M200.7,211c3.2-1.1,6.4-2.2,9.7-3.1c5.2-1.4,10.8-0.7,15.6,1.9c3.7,1.9,6.5,4.8,9.4,7.7
		c12.4,12.5,24.7,24.9,37.1,37.4c1.1,1.2,2.3,2.4,3.3,3.6c0.3,0.4,0.6,0.8,0.7,1.2c1.3,2.9,0.4,5.1-2.5,6.3
		c-3.2,1.2-6.3,2.2-9.5,3.3c-2.2,0.7-4.4,1.5-6.6,2.2c-1.7,0.6-3.6,0.3-5-0.8c-2-1.5-3.9-3.2-5.8-5c-9.1-9.2-18.2-18.6-27.3-27.8
		c-4.2-4.2-11-4.2-15.1,0c-1.7,1.7-2.7,3.8-3,6.2c-1.1,10.3-2.2,20.6-3.4,30.8c-0.5,4-1,7.9-1.6,11.9c-0.1,0.8-0.3,1.5-0.4,2.2
		c-0.5,2.7-2.4,4.8-5.1,5.5c-4.9,1.6-9.7,3.2-14.6,4.9c-0.4,0.1-0.8,0.2-1.1,0.2c-3.2,0.4-5-1.1-5.2-4.2c0-1.9,0.1-3.8,0.4-5.8
		c2.2-18.3,4.5-36.6,6.7-55c0.5-4.8,2.2-9.4,5-13.4c2.7-3.5,6.3-6.2,10.5-7.6C195.6,212.7,198.1,211.9,200.7,211z"/>
	<path class="st0" d="M211,200.7c-1.1,3.2-2.2,6.4-3.1,9.7c-1.4,5.2-0.7,10.8,1.9,15.6c1.9,3.7,4.8,6.5,7.7,9.4
		c12.5,12.4,24.9,24.7,37.4,37.1c1.2,1.1,2.4,2.3,3.6,3.3c0.4,0.3,0.8,0.6,1.2,0.7c2.9,1.3,5.1,0.4,6.3-2.5c1.2-3.2,2.2-6.3,3.3-9.5
		c0.7-2.2,1.5-4.4,2.2-6.6c0.6-1.7,0.3-3.6-0.8-5c-1.5-2-3.2-3.9-5-5.8c-9.2-9.1-18.6-18.2-27.8-27.3c-4.2-4.2-4.2-11,0-15.1
		c1.7-1.7,3.8-2.7,6.2-3c10.3-1.1,20.6-2.2,30.8-3.4c4-0.5,7.9-1,11.9-1.6c0.8-0.1,1.5-0.3,2.2-0.4c2.7-0.5,4.8-2.4,5.5-5.1
		c1.6-4.9,3.2-9.7,4.9-14.6c0.1-0.4,0.2-0.8,0.2-1.1c0.4-3.2-1.1-5-4.2-5.2c-1.9,0-3.8,0.1-5.8,0.4c-18.3,2.2-36.6,4.5-55,6.7
		c-4.8,0.5-9.4,2.2-13.4,5c-3.5,2.7-6.2,6.3-7.6,10.5C212.7,195.6,211.9,198.2,211,200.7z"/>
	<path class="st0" d="M260.7,249.7c-1.1,3.2-2.2,6.4-3.1,9.7c-1.4,5.2-0.7,10.8,1.9,15.6c1.9,3.7,4.8,6.5,7.7,9.4
		c12.5,12.4,24.9,24.7,37.4,37.1c1.2,1.1,2.4,2.3,3.6,3.3c0.4,0.3,0.8,0.6,1.2,0.7c2.9,1.3,5.1,0.4,6.3-2.5c1.2-3.2,2.2-6.3,3.3-9.5
		c0.7-2.2,1.5-4.4,2.2-6.6c0.6-1.7,0.3-3.6-0.8-5c-1.5-2-3.2-3.9-5-5.8c-9.2-9.1-18.6-18.2-27.8-27.3c-4.2-4.2-4.2-11,0-15.1
		c1.7-1.7,3.8-2.7,6.2-3c10.3-1.1,20.6-2.2,30.8-3.4c4-0.5,7.9-1,11.9-1.6c0.8-0.1,1.5-0.3,2.2-0.4c2.7-0.5,4.8-2.4,5.5-5.1
		c1.6-4.9,3.2-9.7,4.9-14.6c0.1-0.4,0.2-0.8,0.2-1.1c0.4-3.2-1.1-5-4.2-5.2c-1.9,0-3.8,0.1-5.8,0.4c-18.3,2.2-36.6,4.5-55,6.7
		c-4.8,0.5-9.4,2.2-13.4,5c-3.5,2.7-6.2,6.3-7.6,10.5C262.4,244.6,261.6,247.2,260.7,249.7z"/>
	<path class="st0" d="M250.4,260c3.2-1.1,6.4-2.2,9.7-3.1c5.2-1.4,10.8-0.7,15.6,1.9c3.7,1.9,6.5,4.8,9.4,7.7
		c12.4,12.5,24.7,24.9,37.1,37.4c1.1,1.2,2.3,2.4,3.3,3.6c0.3,0.4,0.6,0.8,0.7,1.2c1.3,2.9,0.4,5.1-2.5,6.3
		c-3.2,1.2-6.3,2.2-9.5,3.3c-2.2,0.7-4.4,1.5-6.6,2.2c-1.7,0.6-3.6,0.3-5-0.8c-2-1.5-3.9-3.2-5.8-5c-9.1-9.2-18.2-18.6-27.3-27.8
		c-4.2-4.2-11-4.2-15.1,0c-1.7,1.7-2.7,3.8-3,6.2c-1.1,10.3-2.2,20.6-3.4,30.8c-0.5,4-1,7.9-1.6,11.9c-0.1,0.8-0.3,1.5-0.4,2.2
		c-0.5,2.7-2.4,4.8-5.1,5.5c-4.9,1.6-9.7,3.2-14.6,4.9c-0.4,0.1-0.8,0.2-1.1,0.2c-3.2,0.4-5-1.1-5.2-4.2c0-1.9,0.1-3.8,0.4-5.8
		c2.2-18.3,4.5-36.6,6.7-55c0.5-4.8,2.2-9.4,5-13.4c2.7-3.5,6.3-6.2,10.5-7.6C245.3,261.7,247.9,260.9,250.4,260z"/>
	<path class="st0" d="M148.7,138.4c-3.2,1.1-6.4,2.2-9.7,3.1c-5.2,1.4-10.8,0.7-15.6-1.9c-3.7-1.9-6.5-4.8-9.4-7.7
		c-12.4-12.5-24.7-24.9-37.1-37.4c-1.1-1.2-2.3-2.4-3.3-3.6c-0.3-0.4-0.6-0.8-0.7-1.2c-1.3-2.9-0.4-5.1,2.5-6.3
		c3.2-1.2,6.3-2.2,9.5-3.3c2.2-0.7,4.4-1.5,6.6-2.2c1.7-0.6,3.6-0.3,5,0.8c2,1.5,3.9,3.2,5.8,5c9.1,9.2,18.2,18.6,27.3,27.8
		c4.2,4.2,11,4.2,15.1,0c1.7-1.7,2.7-3.8,3-6.2c1.1-10.3,2.2-20.6,3.4-30.8c0.5-4,1-7.9,1.6-11.9c0.1-0.8,0.3-1.5,0.4-2.2
		c0.5-2.7,2.4-4.8,5.1-5.5c4.9-1.6,9.7-3.2,14.6-4.9c0.4-0.1,0.8-0.2,1.1-0.2c3.2-0.4,5,1.1,5.2,4.2c0,1.9-0.1,3.8-0.4,5.8
		c-2.2,18.3-4.5,36.6-6.7,55c-0.5,4.8-2.2,9.4-5,13.4c-2.7,3.5-6.3,6.2-10.5,7.6C153.8,136.7,151.2,137.5,148.7,138.4z"/>
	<path class="st0" d="M138.4,148.7c1.1-3.2,2.2-6.4,3.1-9.7c1.4-5.2,0.7-10.8-1.9-15.6c-1.9-3.7-4.8-6.5-7.7-9.4
		c-12.5-12.4-24.9-24.7-37.4-37.1c-1.2-1.1-2.4-2.3-3.6-3.3c-0.4-0.3-0.8-0.6-1.2-0.7c-2.9-1.3-5.1-0.4-6.3,2.5
		c-1.2,3.2-2.2,6.3-3.3,9.5c-0.7,2.2-1.5,4.4-2.2,6.6c-0.6,1.7-0.3,3.6,0.8,5c1.5,2,3.2,3.9,5,5.8c9.2,9.1,18.6,18.2,27.8,27.3
		c4.2,4.2,4.2,11,0,15.1c-1.7,1.7-3.8,2.7-6.2,3c-10.3,1.1-20.6,2.2-30.8,3.4c-4,0.5-7.9,1-11.9,1.6c-0.8,0.1-1.5,0.3-2.2,0.4
		c-2.7,0.5-4.8,2.4-5.5,5.1c-1.6,4.9-3.2,9.7-4.9,14.6c-0.1,0.4-0.2,0.8-0.2,1.1c-0.4,3.2,1.1,5,4.2,5.2c1.9,0,3.8-0.1,5.8-0.4
		c18.3-2.2,36.6-4.5,55-6.7c4.8-0.5,9.4-2.2,13.4-5c3.5-2.7,6.2-6.3,7.6-10.5C136.7,153.8,137.5,151.2,138.4,148.7z"/>
	<path class="st0" d="M98.9,88.6c-3.2,1.1-6.4,2.2-9.7,3.1c-5.2,1.4-10.8,0.7-15.6-1.9c-3.7-1.9-6.5-4.8-9.4-7.7
		C51.9,69.7,39.6,57.2,27.1,44.8c-1.1-1.2-2.3-2.4-3.3-3.6c-0.3-0.4-0.6-0.8-0.7-1.2c-1.3-2.9-0.4-5.1,2.5-6.3
		c3.2-1.2,6.3-2.2,9.5-3.3c2.2-0.7,4.4-1.5,6.6-2.2c1.7-0.6,3.6-0.3,5,0.8c2,1.5,3.9,3.2,5.8,5c9.1,9.2,18.2,18.6,27.3,27.8
		c4.2,4.2,11,4.2,15.1,0c1.7-1.7,2.7-3.8,3-6.2c1.1-10.3,2.2-20.6,3.4-30.8c0.5-4,1-7.9,1.6-11.9c0.1-0.8,0.3-1.5,0.4-2.2
		c0.5-2.7,2.4-4.8,5.1-5.5c4.9-1.6,9.7-3.2,14.6-4.9c0.4-0.1,0.8-0.2,1.1-0.2c3.2-0.4,5,1.1,5.2,4.2c0,1.9-0.1,3.8-0.4,5.8
		c-2.2,18.3-4.5,36.6-6.7,55c-0.5,4.8-2.2,9.4-5,13.4c-2.7,3.5-6.3,6.2-10.5,7.6C104,87,101.5,87.7,98.9,88.6z"/>
	<path class="st0" d="M88.6,98.9c1.1-3.2,2.2-6.4,3.1-9.7c1.4-5.2,0.7-10.8-1.9-15.6c-1.9-3.7-4.8-6.5-7.7-9.4
		C69.7,51.9,57.2,39.6,44.8,27.1c-1.2-1.1-2.4-2.3-3.6-3.3c-0.4-0.3-0.8-0.6-1.2-0.7c-2.9-1.3-5.1-0.4-6.3,2.5
		c-1.2,3.2-2.2,6.3-3.3,9.5c-0.7,2.2-1.5,4.4-2.2,6.6c-0.6,1.7-0.3,3.6,0.8,5c1.5,2,3.2,3.9,5,5.8c9.2,9.1,18.6,18.2,27.8,27.3
		c4.2,4.2,4.2,11,0,15.1c-1.7,1.7-3.8,2.7-6.2,3c-10.3,1.1-20.6,2.2-30.8,3.4c-4,0.5-7.9,1-11.9,1.6c-0.8,0.1-1.5,0.3-2.2,0.4
		c-2.7,0.5-4.8,2.4-5.5,5.1c-1.6,4.9-3.2,9.7-4.9,14.6c-0.1,0.4-0.2,0.8-0.2,1.1c-0.4,3.2,1.1,5,4.2,5.2c1.9,0,3.8-0.1,5.8-0.4
		c18.3-2.2,36.6-4.5,55-6.7c4.8-0.5,9.4-2.2,13.4-5c3.5-2.7,6.2-6.3,7.6-10.5C87,104,87.7,101.5,88.6,98.9z"/>
	<path class="st0" d="M148.7,211c-3.2-1.1-6.4-2.2-9.7-3.1c-5.2-1.4-10.8-0.7-15.6,1.9c-3.7,1.9-6.5,4.8-9.4,7.7
		c-12.4,12.5-24.7,24.9-37.1,37.4c-1.1,1.2-2.3,2.4-3.3,3.6c-0.3,0.4-0.6,0.8-0.7,1.2c-1.3,2.9-0.4,5.1,2.5,6.3
		c3.2,1.2,6.3,2.2,9.5,3.3c2.2,0.7,4.4,1.5,6.6,2.2c1.7,0.6,3.6,0.3,5-0.8c2-1.5,3.9-3.2,5.8-5c9.1-9.2,18.2-18.6,27.3-27.8
		c4.2-4.2,11-4.2,15.1,0c1.7,1.7,2.7,3.8,3,6.2c1.1,10.3,2.2,20.6,3.4,30.8c0.5,4,1,7.9,1.6,11.9c0.1,0.8,0.3,1.5,0.4,2.2
		c0.5,2.7,2.4,4.8,5.1,5.5c4.9,1.6,9.7,3.2,14.6,4.9c0.4,0.1,0.8,0.2,1.1,0.2c3.2,0.4,5-1.1,5.2-4.2c0-1.9-0.1-3.8-0.4-5.8
		c-2.2-18.3-4.5-36.6-6.7-55c-0.5-4.8-2.2-9.4-5-13.4c-2.7-3.5-6.3-6.2-10.5-7.6C153.8,212.7,151.2,211.9,148.7,211z"/>
	<path class="st0" d="M138.4,200.7c1.1,3.2,2.2,6.4,3.1,9.7c1.4,5.2,0.7,10.8-1.9,15.6c-1.9,3.7-4.8,6.5-7.7,9.4
		c-12.5,12.4-24.9,24.7-37.4,37.1c-1.2,1.1-2.4,2.3-3.6,3.3c-0.4,0.3-0.8,0.6-1.2,0.7c-2.9,1.3-5.1,0.4-6.3-2.5
		c-1.2-3.2-2.2-6.3-3.3-9.5c-0.7-2.2-1.5-4.4-2.2-6.6c-0.6-1.7-0.3-3.6,0.8-5c1.5-2,3.2-3.9,5-5.8c9.2-9.1,18.6-18.2,27.8-27.3
		c4.2-4.2,4.2-11,0-15.1c-1.7-1.7-3.8-2.7-6.2-3c-10.3-1.1-20.6-2.2-30.8-3.4c-4-0.5-7.9-1-11.9-1.6c-0.8-0.1-1.5-0.3-2.2-0.4
		c-2.7-0.5-4.8-2.4-5.5-5.1c-1.6-4.9-3.2-9.7-4.9-14.6c-0.1-0.4-0.2-0.8-0.2-1.1c-0.4-3.2,1.1-5,4.2-5.2c1.9,0,3.8,0.1,5.8,0.4
		c18.3,2.2,36.6,4.5,55,6.7c4.8,0.5,9.4,2.2,13.4,5c3.5,2.7,6.2,6.3,7.6,10.5C136.7,195.6,137.5,198.2,138.4,200.7z"/>
	<path class="st0" d="M88.6,249.7c1.1,3.2,2.2,6.4,3.1,9.7c1.4,5.2,0.7,10.8-1.9,15.6c-1.9,3.7-4.8,6.5-7.7,9.4
		c-12.5,12.4-24.9,24.7-37.4,37.1c-1.2,1.1-2.4,2.3-3.6,3.3c-0.4,0.3-0.8,0.6-1.2,0.7c-2.9,1.3-5.1,0.4-6.3-2.5
		c-1.2-3.2-2.2-6.3-3.3-9.5c-0.7-2.2-1.5-4.4-2.2-6.6c-0.6-1.7-0.3-3.6,0.8-5c1.5-2,3.2-3.9,5-5.8c9.2-9.1,18.6-18.2,27.8-27.3
		c4.2-4.2,4.2-11,0-15.1c-1.7-1.7-3.8-2.7-6.2-3c-10.3-1.1-20.6-2.2-30.8-3.4c-4-0.5-7.9-1-11.9-1.6c-0.8-0.1-1.5-0.3-2.2-0.4
		c-2.7-0.5-4.8-2.4-5.5-5.1c-1.6-4.9-3.2-9.7-4.9-14.6c-0.1-0.4-0.2-0.8-0.2-1.1c-0.4-3.2,1.1-5,4.2-5.2c1.9,0,3.8,0.1,5.8,0.4
		c18.3,2.2,36.6,4.5,55,6.7c4.8,0.5,9.4,2.2,13.4,5c3.5,2.7,6.2,6.3,7.6,10.5C87,244.6,87.7,247.2,88.6,249.7z"/>
	<path class="st0" d="M98.9,260c-3.2-1.1-6.4-2.2-9.7-3.1c-5.2-1.4-10.8-0.7-15.6,1.9c-3.7,1.9-6.5,4.8-9.4,7.7
		c-12.4,12.5-24.7,24.9-37.1,37.4c-1.1,1.2-2.3,2.4-3.3,3.6c-0.3,0.4-0.6,0.8-0.7,1.2c-1.3,2.9-0.4,5.1,2.5,6.3
		c3.2,1.2,6.3,2.2,9.5,3.3c2.2,0.7,4.4,1.5,6.6,2.2c1.7,0.6,3.6,0.3,5-0.8c2-1.5,3.9-3.2,5.8-5c9.1-9.2,18.2-18.6,27.3-27.8
		c4.2-4.2,11-4.2,15.1,0c1.7,1.7,2.7,3.8,3,6.2c1.1,10.3,2.2,20.6,3.4,30.8c0.5,4,1,7.9,1.6,11.9c0.1,0.8,0.3,1.5,0.4,2.2
		c0.5,2.7,2.4,4.8,5.1,5.5c4.9,1.6,9.7,3.2,14.6,4.9c0.4,0.1,0.8,0.2,1.1,0.2c3.2,0.4,5-1.1,5.2-4.2c0-1.9-0.1-3.8-0.4-5.8
		c-2.2-18.3-4.5-36.6-6.7-55c-0.5-4.8-2.2-9.4-5-13.4c-2.7-3.5-6.3-6.2-10.5-7.6C104,261.7,101.5,260.9,98.9,260z"/>
</g>
</svg>
